<?xml version="1.0" encoding="UTF-8" standalone="no"?>
<!-- Uploaded to: SVG Repo, www.svgrepo.com, Generator: SVG Repo Mixer Tools -->

<svg
   width="800px"
   height="800px"
   viewBox="0 0 1024 1024"
   class="icon"
   version="1.1"
   id="svg1"
   sodipodi:docname="left-arrow.svg"
   inkscape:version="1.3.2 (091e20ef0f, 2023-11-25)"
   xmlns:inkscape="http://www.inkscape.org/namespaces/inkscape"
   xmlns:sodipodi="http://sodipodi.sourceforge.net/DTD/sodipodi-0.dtd"
   xmlns="http://www.w3.org/2000/svg"
   xmlns:svg="http://www.w3.org/2000/svg">
  <defs
     id="defs1" />
  <sodipodi:namedview
     id="namedview1"
     pagecolor="#ffffff"
     bordercolor="#000000"
     borderopacity="0.25"
     inkscape:showpageshadow="2"
     inkscape:pageopacity="0.0"
     inkscape:pagecheckerboard="0"
     inkscape:deskcolor="#d1d1d1"
     inkscape:zoom="1.00625"
     inkscape:cx="400.49689"
     inkscape:cy="400"
     inkscape:window-width="1920"
     inkscape:window-height="1011"
     inkscape:window-x="0"
     inkscape:window-y="0"
     inkscape:window-maximized="1"
     inkscape:current-layer="svg1" />
  <path
     d="M768 903.232l-50.432 56.768L256 512l461.568-448 50.432 56.768L364.928 512z"
     fill="#000000"
     id="path1" />
  <path
     style="fill:#ffffff;stroke-width:0.993789"
     d="m 381.18552,575.05448 c -98.34796,-95.5106 -178.9732,-174.13182 -179.1672,-174.71381 -0.3491,-1.04729 357.0997,-348.663651 358.52572,-348.663651 0.40706,0 9.27819,9.614906 19.71364,21.366459 l 18.97353,21.36646 -5.20567,5.07671 C 591.16242,102.27884 520.50932,170.83038 437.01863,251.82341 353.52795,332.81645 285.21739,399.49591 285.21739,400 c 0,0.50409 68.31056,67.18355 151.80124,148.17659 83.49069,80.99303 154.14379,149.54457 157.00691,152.33676 l 5.20567,5.07671 -18.95787,21.36646 c -10.42682,11.75155 -19.25384,21.45357 -19.6156,21.56003 -0.36176,0.10647 -81.12425,-77.95146 -179.47222,-173.46207 z"
     id="path2"
     transform="scale(1.28)" />
</svg>
