<?xml version="1.0" encoding="UTF-8" standalone="no"?>
<!-- Uploaded to: SVG Repo, www.svgrepo.com, Generator: SVG Repo Mixer Tools -->

<svg
   width="800px"
   height="800px"
   viewBox="0 0 1024 1024"
   class="icon"
   version="1.1"
   id="svg1"
   sodipodi:docname="right-arrow.svg"
   inkscape:version="1.3.2 (091e20ef0f, 2023-11-25)"
   xmlns:inkscape="http://www.inkscape.org/namespaces/inkscape"
   xmlns:sodipodi="http://sodipodi.sourceforge.net/DTD/sodipodi-0.dtd"
   xmlns="http://www.w3.org/2000/svg"
   xmlns:svg="http://www.w3.org/2000/svg">
  <defs
     id="defs1" />
  <sodipodi:namedview
     id="namedview1"
     pagecolor="#ffffff"
     bordercolor="#000000"
     borderopacity="0.25"
     inkscape:showpageshadow="2"
     inkscape:pageopacity="0.0"
     inkscape:pagecheckerboard="0"
     inkscape:deskcolor="#d1d1d1"
     inkscape:zoom="1.00625"
     inkscape:cx="400.49689"
     inkscape:cy="400"
     inkscape:window-width="1920"
     inkscape:window-height="1011"
     inkscape:window-x="0"
     inkscape:window-y="0"
     inkscape:window-maximized="1"
     inkscape:current-layer="svg1" />
  <path
     d="M256 120.768L306.432 64 768 512l-461.568 448L256 903.232 659.072 512z"
     fill="#000000"
     id="path1" />
  <path
     style="fill:#ffffff;stroke-width:0.993789"
     d="M 219.89165,727.18285 200.77709,705.59006 213.75235,693.1677 C 245.67898,662.60154 515.61104,400.44469 515.61502,400 515.61898,399.55579 245.78109,137.49536 213.74663,106.8323 l -12.97794,-12.422362 18.97358,-21.36646 c 10.43548,-11.751553 19.31964,-21.366459 19.74259,-21.366459 1.07054,0 358.77601,347.283631 358.77601,348.322981 0,0.81296 -357.3006,348.08953 -358.61007,348.54931 -0.35452,0.12448 -9.24614,-9.49043 -19.75915,-21.36646 z"
     id="path2"
     transform="scale(1.28)" />
</svg>
